# xmcd CD database file
#
# Track frame offsets:
#	150
#	39245
#	79830
#	107800
#	131312
#
# Disc length: 2084 seconds
#
# Revision: 4
# Processed by: cddbd v1.5PL3 Copyright (c) Steve Scherf et al.
# Submitted via: CDex 1.50beta9
#
DISCID=33082205
DTITLE=小室哲哉 - LATEST WORKS TETSUYA KOMURO
DYEAR=1998
DGENRE=Rock
TTITLE0=Welcome to the Museum
TTITLE1=Transformation
TTITLE2=Dreams
TTITLE3=8
TTITLE4=Empty Lies
EXTD=YEAR: 1998
EXTT0=
EXTT1=
EXTT2=
EXTT3=
EXTT4=
PLAYORDER=
